#!OML:ASF E:\Style4\Style4.ASF
:FULLY-SPECIFIED
:DEGREES
2392
root 0.192646 18.1884 -1.61982 2.07738 10.6693 1.93892
lowerback 10.836 1.58984 -0.89306
upperback 8.62632 2.07245 0.802525
thorax 2.87516 0.996381 1.16631
lowerneck -1.81631 -3.98945 -4.95423
upperneck 20.4388 -4.93011 0.089473
head 6.65108 -2.6796 0.553241
rclavicle -7.35503e-015 3.45885e-014
rhumerus -37.728 11.4702 -91.4582
rradius 61.7364
rwrist 12.567
rhand -0.314608 0.150213
rfingers 7.12502
rthumb 25.289 -28.1935
lclavicle -7.35503e-015 3.45885e-014
lhumerus -41.115 -18.2489 93.7865
lradius 67.3908
lwrist -2.04296
lhand -1.21364 34.3294
lfingers 7.12502
lthumb 24.4274 62.7921
rfemur -9.0414 3.07215 16.7359
rtibia 19.3312
rfoot -12.6584 -19.8237
rtoes -4.03357
lfemur -9.91558 -8.18525 -21.3909
ltibia 14.7844
lfoot -7.54005 5.90537
ltoes -11.6271
2393
root 0.190878 18.1865 -1.61889 2.04579 10.7193 1.91312
lowerback 10.8005 1.55256 -0.842227
upperback 8.60182 2.02739 0.794509
thorax 2.87139 0.976434 1.13377
lowerneck -2.13052 -3.97094 -4.93874
upperneck 20.467 -4.90639 0.163797
head 6.71529 -2.66198 0.568777
rclavicle -2.26615e-014 9.54166e-015
rhumerus -37.6501 11.4427 -91.482
rradius 61.6259
rwrist 12.6201
rhand -0.191663 0.11695
rfingers 7.12502
rthumb 25.4068 -28.2101
lclavicle -2.26615e-014 9.54166e-015
lhumerus -41.0338 -18.2483 93.7371
lradius 67.2821
lwrist -2.08463
lhand -1.19017 34.1447
lfingers 7.12502
lthumb 24.4499 62.6043
rfemur -8.99735 3.07369 16.778
rtibia 19.3432
rfoot -12.7385 -19.8553
rtoes -3.73747
lfemur -9.89272 -8.1769 -21.3634
ltibia 14.7973
lfoot -7.60724 5.96649
ltoes -11.7312
2394
root 0.189425 18.1862 -1.61689 2.02419 10.7474 1.88317
lowerback 10.7024 1.54094 -0.810565
upperback 8.563 2.01501 0.784822
thorax 2.88494 0.971864 1.10898
lowerneck -2.2489 -3.9677 -4.84944
upperneck 20.3725 -4.91612 0.214867
head 6.70389 -2.65611 0.567965
rclavicle -1.09332e-014 8.34896e-015
rhumerus -37.6304 11.3985 -91.5055
rradius 61.5327
rwrist 12.6696
rhand -0.0868264 0.112737
rfingers 7.12502
rthumb 25.5072 -28.1999
lclavicle -1.09332e-014 8.34896e-015
lhumerus -41.053 -18.2827 93.731
lradius 67.2533
lwrist -2.05803
lhand -1.0757 34.1726
lfingers 7.12502
lthumb 24.5596 62.6174
rfemur -8.9544 3.06842 16.8212
rtibia 19.3356
rfoot -12.7767 -19.8801
rtoes -3.54197
lfemur -9.90152 -8.13614 -21.3335
ltibia 14.8587
lfoot -7.71984 5.96936
ltoes -12.052
2395
root 0.188528 18.1848 -1.61648 1.98132 10.7446 1.91298
lowerback 10.675 1.55911 -0.86295
upperback 8.51078 2.03499 0.780751
thorax 2.84239 0.979899 1.13215
lowerneck -2.32819 -3.96666 -4.74466
upperneck 20.2814 -4.92733 0.24132
head 6.6858 -2.65167 0.557476
rclavicle 2.98177e-015 1.98785e-015
rhumerus -37.6697 11.34 -91.5042
rradius 61.4663
rwrist 12.7034
rhand 0.113478 0.0495061
rfingers 7.12502
rthumb 25.6991 -28.2356
lclavicle 2.98177e-015 1.98785e-015
lhumerus -41.121 -18.3367 93.7825
lradius 67.2149
lwrist -2.0615
lhand -0.96683 34.205
lfingers 7.12502
lthumb 24.664 62.6356
rfemur -8.90412 3.07124 16.7912
rtibia 19.3491
rfoot -12.8098 -19.8567
rtoes -3.57267
lfemur -9.88183 -8.11749 -21.3679
ltibia 14.9137
lfoot -7.62599 5.87266
ltoes -11.8624
2396
root 0.188157 18.1828 -1.61601 1.9297 10.7658 1.88422
lowerback 10.6686 1.57829 -0.819297
upperback 8.46914 2.06344 0.783025
thorax 2.80224 0.996402 1.10707
lowerneck -2.51696 -3.99297 -4.67999
upperneck 20.2536 -4.97551 0.314982
head 6.71062 -2.66435 0.563134
rclavicle -3.65764e-014 -3.57812e-015
rhumerus -37.6841 11.2234 -91.4808
rradius 61.403
rwrist 12.7653
rhand 0.228898 0.0135745
rfingers 7.12502
rthumb 25.8096 -28.2555
lclavicle -3.65764e-014 -3.57812e-015
lhumerus -41.1373 -18.49 93.8278
lradius 67.1627
lwrist -2.02939
lhand -0.906688 34.2718
lfingers 7.12502
lthumb 24.7216 62.6945
rfemur -8.84418 3.01587 16.826
rtibia 19.3413
rfoot -12.8058 -19.826
rtoes -3.75513
lfemur -9.87862 -8.11899 -21.3433
ltibia 15.0028
lfoot -7.58877 5.80138
ltoes -11.8054
2397
root 0.187667 18.1811 -1.61541 1.89886 10.7997 1.8849
lowerback 10.6137 1.58204 -0.818555
upperback 8.42231 2.06843 0.799141
thorax 2.78162 0.998667 1.12356
lowerneck -2.65681 -4.01224 -4.71038
upperneck 20.224 -5.00843 0.393954
head 6.72917 -2.67621 0.588212
rclavicle -2.18663e-015 -2.38542e-015
rhumerus -37.7072 11.1692 -91.438
rradius 61.3301
rwrist 12.8301
rhand 0.384868 0.00620451
rfingers 7.12502
rthumb 25.959 -28.2411
lclavicle -2.18663e-015 -2.38542e-015
lhumerus -41.1426 -18.5409 93.8947
lradius 67.069
lwrist -2.01815
lhand -0.816499 34.3603
lfingers 7.12502
lthumb 24.8081 62.7711
rfemur -8.79496 2.96683 16.8323
rtibia 19.3274
rfoot -12.7869 -19.8379
rtoes -4.03326
lfemur -9.90736 -8.14362 -21.3439
ltibia 15.1131
lfoot -7.69874 5.76277
ltoes -11.3677
2398
root 0.186895 18.1808 -1.61558 1.84147 10.8314 1.79999
lowerback 10.5599 1.55648 -0.758761
upperback 8.38468 2.03885 0.833172
thorax 2.77232 0.985623 1.12853
lowerneck -2.7579 -4.00274 -4.65829
upperneck 20.1271 -4.99588 0.383663
head 6.71327 -2.66706 0.575795
rclavicle 1.35174e-014 -7.95139e-016
rhumerus -37.7238 11.2368 -91.4388
rradius 61.2685
rwrist 12.823
rhand 0.465568 -0.009961
rfingers 7.12502
rthumb 26.0362 -28.2459
lclavicle 1.35174e-014 -7.95139e-016
lhumerus -41.1811 -18.5285 93.9287
lradius 66.9819
lwrist -2.05928
lhand -0.747889 34.341
lfingers 7.12502
lthumb 24.8738 62.7428
rfemur -8.7339 2.94697 16.9319
rtibia 19.3071
rfoot -12.7758 -19.8299
rtoes -4.03279
lfemur -9.93808 -8.15227 -21.247
ltibia 15.2365
lfoot -7.77023 5.70852
ltoes -10.9895
2399
root 0.186515 18.1808 -1.61462 1.78439 10.8668 1.71387
lowerback 10.5478 1.52622 -0.691178
upperback 8.32093 2.0034 0.849938
thorax 2.71374 0.970759 1.10996
lowerneck -2.96143 -3.97061 -4.58859
upperneck 20.2265 -4.96125 0.439716
head 6.77899 -2.64164 0.579295
rclavicle -1.43125e-014 -1.59028e-014
rhumerus -37.7951 11.2821 -91.4893
rradius 61.2204
rwrist 12.8124
rhand 0.511118 -0.0529043
rfingers 7.12502
rthumb 26.0798 -28.2824
lclavicle -1.43125e-014 -1.59028e-014
lhumerus -41.3055 -18.5716 93.9638
lradius 66.9567
lwrist -2.08784
lhand -0.793651 34.4348
lfingers 7.12502
lthumb 24.83 62.8426
rfemur -8.67205 2.89348 17.0309
rtibia 19.288
rfoot -12.7731 -19.7965
rtoes -3.96536
lfemur -9.94647 -8.1303 -21.1581
ltibia 15.3416
lfoot -7.75416 5.66736
ltoes -11.7429
2400
root 0.186013 18.1795 -1.61446 1.75464 10.8976 1.68702
lowerback 10.5462 1.51419 -0.679402
upperback 8.24735 1.98798 0.855001
thorax 2.63721 0.96388 1.1084
lowerneck -3.21995 -3.95526 -4.6007
upperneck 20.4124 -4.95641 0.588717
head 6.88804 -2.6291 0.622121
rclavicle -1.03368e-014 -4.37326e-015
rhumerus -37.8597 11.2289 -91.5173
rradius 61.1567
rwrist 12.848
rhand 0.64896 -0.0415974
rfingers 7.12502
rthumb 26.2118 -28.2516
lclavicle -1.03368e-014 -4.37326e-015
lhumerus -41.4102 -18.664 94.0174
lradius 66.9594
lwrist -2.0865
lhand -0.8243 34.6883
lfingers 7.12502
lthumb 24.8006 63.1002
rfemur -8.63623 2.88099 17.0606
rtibia 19.2788
rfoot -12.8217 -19.7926
rtoes -3.71217
lfemur -9.97088 -8.09584 -21.1276
ltibia 15.4351
lfoot -7.76508 5.56654
ltoes -11.9582
2401
root 0.18517 18.1773 -1.61456 1.73166 10.9246 1.68735
lowerback 10.5107 1.5039 -0.70143
upperback 8.19902 1.97263 0.862304
thorax 2.60471 0.955244 1.12955
lowerneck -3.46802 -3.94413 -4.55938
upperneck 20.5358 -4.94116 0.618071
head 6.9706 -2.61654 0.619393
rclavicle -4.96962e-015 -1.19271e-015
rhumerus -37.8642 11.2375 -91.5284
rradius 61.1078
rwrist 12.8215
rhand 0.828735 -0.108889
rfingers 7.12502
rthumb 26.3839 -28.2932
lclavicle -4.96962e-015 -1.19271e-015
lhumerus -41.434 -18.7473 94.0713
lradius 66.9199
lwrist -2.03167
lhand -0.891542 34.9299
lfingers 7.12502
lthumb 24.7362 63.3506
rfemur -8.62515 2.8463 17.0596
rtibia 19.3102
rfoot -12.8355 -19.7795
rtoes -3.58417
lfemur -9.98467 -8.07063 -21.1231
ltibia 15.4843
lfoot -7.82336 5.47611
ltoes -11.1821
2402
root 0.183984 18.1746 -1.61464 1.69885 10.9414 1.71596
lowerback 10.4809 1.50397 -0.752518
upperback 8.15784 1.96884 0.869128
thorax 2.57559 0.951169 1.16552
lowerneck -3.54786 -3.94325 -4.50581
upperneck 20.4769 -4.93929 0.597266
head 6.96328 -2.61322 0.60273
rclavicle 4.47266e-014 1.59028e-014
rhumerus -37.8723 11.2699 -91.5366
rradius 61.0322
rwrist 12.8291
rhand 0.827832 -0.222617
rfingers 7.12502
rthumb 26.3831 -28.407
lclavicle 4.47266e-014 1.59028e-014
lhumerus -41.4274 -18.8074 94.1075
lradius 66.7883
lwrist -1.98476
lhand -0.843988 34.9937
lfingers 7.12502
lthumb 24.7817 63.4081
rfemur -8.62005 2.80015 17.0308
rtibia 19.373
rfoot -12.8194 -19.7903
rtoes -3.86217
lfemur -9.96311 -8.0507 -21.1588
ltibia 15.5016
lfoot -7.87088 5.42703
ltoes -10.6765
2403
root 0.182975 18.1731 -1.61347 1.65576 10.9614 1.7758
lowerback 10.4705 1.4954 -0.847314
upperback 8.10725 1.95026 0.871338
thorax 2.52529 0.938137 1.22168
lowerneck -3.61744 -3.92845 -4.547
upperneck 20.4689 -4.9279 0.676969
head 6.97568 -2.60461 0.634514
rclavicle 3.18055e-014 -1.90833e-014
rhumerus -37.9062 11.3258 -91.5641
rradius 60.9325
rwrist 12.8241
rhand 0.818116 -0.252659
rfingers 7.12502
rthumb 26.3738 -28.4385
lclavicle 3.18055e-014 -1.90833e-014
lhumerus -41.5028 -18.8955 94.1537
lradius 66.7282
lwrist -1.90474
lhand -0.811943 35.0378
lfingers 7.12502
lthumb 24.8124 63.448
rfemur -8.57715 2.79035 16.9724
rtibia 19.428
rfoot -12.8711 -19.7994
rtoes -3.90679
lfemur -9.91578 -7.97402 -21.2399
ltibia 15.5275
lfoot -7.83356 5.36225
ltoes -11.1798
